<svg width="32" height="32" viewBox="0 0 32 32" fill="none" xmlns="http://www.w3.org/2000/svg">
  <!-- Butterfly body -->
  <path d="M16 8L16 24" stroke="#D9A8E0" stroke-width="2" stroke-linecap="round"/>
  <!-- Left wings -->
  <path d="M8 12C4 8 4 14 8 16C12 18 16 14 14 12C12 10 10 10 8 12Z" fill="#D9A8E0"/>
  <path d="M8 20C4 24 4 18 8 16C12 14 16 18 14 20C12 22 10 22 8 20Z" fill="#D9A8E0" fill-opacity="0.8"/>
  <!-- Right wings -->
  <path d="M24 12C28 8 28 14 24 16C20 18 16 14 18 12C20 10 22 10 24 12Z" fill="#D9A8E0"/>
  <path d="M24 20C28 24 28 18 24 16C20 14 16 18 18 20C20 22 22 22 24 20Z" fill="#D9A8E0" fill-opacity="0.8"/>
  <!-- Antennae -->
  <path d="M16 8C14 4 13 6 15 8" stroke="#D9A8E0" stroke-width="1.5" stroke-linecap="round"/>
  <path d="M16 8C18 4 19 6 17 8" stroke="#D9A8E0" stroke-width="1.5" stroke-linecap="round"/>
</svg> 